# xmcd
#
# Track frame offsets:
#	150
#	21092
#	38345
#	53789
#	69443
#	87368
#	103633
#	125774
#	146898
#	166316
#	185031
#	202954
#	219969
#	231345
#
# Disc length: 3291 seconds
#
# Revision: 1
# Processed by: cddbd v1.5.2PL0 Copyright (c) Steve Scherf et al.
# Submitted via: audiograbber 1.83.01
#
DISCID=c40cd90e
DTITLE=Ashleigh Dallas - Lighthouse
DYEAR=2017
DGENRE=Country
TTITLE0=Lighthouse
TTITLE1=Dark cloud
TTITLE2=Wide brimmed hat (feat. rex dallas)
TTITLE3=My heart
TTITLE4=Sail away
TTITLE5=My cards right
TTITLE6=Be like you
TTITLE7=Follow you
TTITLE8=Hush
TTITLE9=Me
TTITLE10=Feel the beat
TTITLE11=Dear brother
TTITLE12=Man flu
TTITLE13=Pushin' the bow
EXTD=
EXTT0=
EXTT1=
EXTT2=
EXTT3=
EXTT4=
EXTT5=
EXTT6=
EXTT7=
EXTT8=
EXTT9=
EXTT10=
EXTT11=
EXTT12=
EXTT13=
PLAYORDER=
